<svg
  viewBox="0 0 182.60866 176.05072"
  xmlns:inkscape="http://www.inkscape.org/namespaces/inkscape"
  xmlns:sodipodi="http://sodipodi.sourceforge.net/DTD/sodipodi-0.dtd"
  xmlns="http://www.w3.org/2000/svg"
>
  <defs>
    <clipPath clipPathUnits="userSpaceOnUse" id="outer">
      <path
        d="m 17805.4,48628.1 c 0,0 -2409.9,185.5 -2646.2,-2217.7 -236.2,-2403.2 2045.2,-3119.4 3586.5,-2618.8 1541.2,500.6 1636.5,2398.4 1550.7,2982.9 -99.3,676.9 -968.1,1828.8 -2491,1853.6 z"
      />
   </clipPath>
   <style>
      text {
        font-size: 200px;
        font-family: FreeSans;
        fill: #14007d;
        stroke: #e78200;
        stroke-width: 15;
        paint-order: stroke fill markers;
        animation: spin 8s linear infinite;
        transform-origin: center;
      }

      @keyframes spin {
        from { transform: rotate(0deg); }
        to { transform: rotate(360deg); }
      }
    </style>
  </defs>
  <g transform="translate(-16.168555,-17.911977)">
    <g transform="translate(-48.979888,-36.923374)">
      <path
        d="m 159.09926,54.952386 c 0,0 -85.015918,-6.544028 -93.352057,78.235534 -8.332612,84.77956 72.150117,110.04551 126.523757,92.38545 54.37012,-17.66006 57.73209,-84.61023 54.70525,-105.23009 C 243.47313,96.46375 212.8238,55.827275 159.09926,54.952386"
        style="fill: #d7c271"
      />
      <g transform="matrix(0.03527778,0,0,-0.03527778,-469.03572,1770.4438)">
        <g clip-path="url(#outer)">
          <path
            d="m 15567,45380.9 c 230.9,-557.5 1204.5,-1366.7 2443.1,-1063.8 1368,334.6 2180.7,1995.2 1767.8,2956.9 -412.9,961.8 -3091.5,2037 -4115.9,-38.1 -568.9,-1152.3 -95,-1855 -95,-1855"
            style="fill: #f8e28d"
          />
          <path
            d="m 17053.2,43839.6 c 0,0 1362.1,-211.7 2286.3,684.6 591.8,573.9 852.9,1339.2 852.9,1339.2 0,0 -98.7,-1436.5 -1327.5,-1918.6 -973,-381.8 -1811.7,-105.2 -1811.7,-105.2"
            style="fill: #b7a042"
          />
          <path
            d="m 15455.7,47508.6 c 0,0 580.8,101.6 422,-632.3 -158.9,-733.9 -788.3,-674.5 -946.6,-481.1 -158.4,193.4 73.4,875.6 524.6,1113.4"
            style="fill: #b7a042"
          />
          <path
            d="m 16697.8,43747.8 c 0,0 -967.2,483.1 -1036.5,699.4 -69.4,216.2 367.3,692.4 900.2,438.7 533,-253.8 454.3,-846.5 136.3,-1138.1"
            style="fill: #b7a042"
          />
          <path
            d="m 18332.2,44234.5 c 0,0 -300.6,10.9 -254.6,157.3 45.9,146.5 539,-36.3 254.6,-157.3"
            style="fill: #b7a042"
          />
          <path
            d="m 19819.5,45482.3 c 0,0 -530.4,-103.8 -509.9,257.1 20.4,361 358.7,391.2 546.7,174.8 188,-216.4 73.1,-367.4 -36.8,-431.9"
            style="fill: #b7a042"
          />
          <path
            d="m 19358.4,48217.2 c 0,0 -787.6,102.7 -890.1,-437.8 -102.4,-540.6 1057.9,-1406.7 1442.2,-996.9 384.3,409.8 165.7,1174.1 -552.1,1434.7"
            style="fill: #b7a042"
          />
        </g>
      </g>
    </g>
    <text x="25" y="175">∅</text>
  </g>
</svg>
